<svg width="41" height="41" viewBox="0 0 41 41" fill="none" xmlns="http://www.w3.org/2000/svg">
<g clip-path="url(#clip0_33_2764)">
<path d="M39.1486 3.03656H1.86422C0.832813 3.03656 0 3.86937 0 4.90078V29.3662C0 30.3848 0.832813 31.2176 1.85141 31.2176H17.9247V33.6136H16.637C15.4775 33.6136 14.5358 34.5553 14.5358 35.7148V37.3484C14.5358 37.6944 14.8112 37.9698 15.1572 37.9698H25.8492C26.1952 37.9698 26.4706 37.6944 26.4706 37.3484V35.7148C26.4706 34.5553 25.5289 33.6136 24.3694 33.6136H23.0817V31.2176H39.155C40.1736 31.2176 41.0064 30.3848 41.0064 29.3662V4.88797C41.0037 4.39667 40.8069 3.92636 40.4589 3.57955C40.1109 3.23275 39.6399 3.03757 39.1486 3.03656ZM24.3694 34.85C24.8434 34.85 25.2278 35.2344 25.2278 35.7084V36.7206H15.7786V35.7084C15.7786 35.2344 16.163 34.85 16.637 34.85H24.3694ZM19.1675 33.6072V31.2112H21.8389V33.6072H19.1675ZM39.7572 29.3598C39.7572 29.693 39.4817 29.9684 39.1486 29.9684H1.85141C1.51828 29.9684 1.24281 29.693 1.24281 29.3598V4.90078C1.24281 4.56125 1.51828 4.27937 1.86422 4.27937H39.1486C39.4817 4.27937 39.7572 4.55484 39.7572 4.88797V29.3598Z" fill="#6F6F6F"/>
<path d="M37.0859 6.71375H3.91438C3.56844 6.71375 3.29297 6.98921 3.29297 7.33515V26.9127C3.29297 27.2586 3.56844 27.5341 3.91438 27.5341H37.0859C37.4319 27.5341 37.7073 27.2586 37.7073 26.9127V7.33515C37.7073 7.17034 37.6419 7.01229 37.5253 6.89575C37.4088 6.77922 37.2507 6.71375 37.0859 6.71375ZM36.4645 26.2912H4.53578V7.95656H36.4645V26.2912Z" fill="#6F6F6F"/>
<path d="M29.5394 18.3859H33.8893C34.2352 18.3859 34.5107 18.1105 34.5107 17.7645V11.243C34.5107 10.897 34.2352 10.6216 33.8893 10.6216H29.5394C29.1935 10.6216 28.918 10.897 28.918 11.243V17.7645C28.918 18.1105 29.1999 18.3859 29.5394 18.3859ZM30.1608 11.8644H33.2679V17.1431H30.1608V11.8644ZM7.11115 13.1456H19.0716C19.4176 13.1456 19.693 12.8701 19.693 12.5242C19.693 12.1783 19.4176 11.9028 19.0716 11.9028H7.11115C6.94635 11.9028 6.78829 11.9683 6.67175 12.0848C6.55522 12.2013 6.48975 12.3594 6.48975 12.5242C6.48975 12.689 6.55522 12.8471 6.67175 12.9636C6.78829 13.0801 6.94635 13.1456 7.11115 13.1456ZM7.11115 16.637H24.6579C25.0038 16.637 25.2793 16.3616 25.2793 16.0156C25.2793 15.6697 25.0038 15.3942 24.6579 15.3942H7.11115C6.76522 15.3942 6.48975 15.6697 6.48975 16.0156C6.48975 16.3616 6.76522 16.637 7.11115 16.637ZM7.11115 20.1348H24.6579C25.0038 20.1348 25.2793 19.8594 25.2793 19.5134C25.2793 19.1675 25.0038 18.892 24.6579 18.892H7.11115C6.94635 18.892 6.78829 18.9575 6.67175 19.074C6.55522 19.1906 6.48975 19.3486 6.48975 19.5134C6.48975 19.6782 6.55522 19.8363 6.67175 19.9528C6.78829 20.0694 6.94635 20.1348 7.11115 20.1348ZM7.11115 23.6262H24.6579C25.0038 23.6262 25.2793 23.3508 25.2793 23.0048C25.2793 22.6589 25.0038 22.3834 24.6579 22.3834H7.11115C6.76522 22.3834 6.48975 22.6589 6.48975 23.0048C6.48975 23.3508 6.76522 23.6262 7.11115 23.6262Z" fill="#6F6F6F"/>
</g>
<defs>
<clipPath id="clip0_33_2764">
<rect width="41" height="41" fill="white"/>
</clipPath>
</defs>
</svg>
