<svg width="45" height="45" viewBox="0 0 45 45" fill="none" xmlns="http://www.w3.org/2000/svg">
<path d="M31.1903 13.9492C28.8189 11.5778 25.6943 10.2945 22.3744 10.2945C19.0266 10.2945 15.902 11.6057 13.5585 13.9492C10.4339 17.0738 10.7408 21.3422 10.9919 25.1643C11.0477 26.057 11.1035 26.894 11.1314 27.6751L8.87164 29.9628C8.73215 30.1023 8.64844 30.2976 8.64844 30.4929C8.64844 30.6882 8.73215 30.8834 8.87164 31.0229L14.4234 36.5747C14.5629 36.7142 14.7582 36.7979 14.9535 36.7979C15.1766 36.77 15.344 36.7142 15.4835 36.5747L17.7712 34.2592C18.3571 34.2592 18.9987 34.2871 19.7241 34.3428C20.561 34.3986 21.5933 34.4265 22.6255 34.4265C25.3037 34.4265 28.7352 34.1197 31.2182 31.6088C33.5895 29.2375 34.8729 26.1128 34.8729 22.7929C34.845 19.4451 33.5338 16.3205 31.1903 13.9492ZM22.5697 32.92C21.6212 32.92 20.6726 32.8642 19.752 32.8363C18.915 32.7805 18.1618 32.7526 17.4085 32.7526C17.2132 32.7526 17.0179 32.8363 16.8784 32.9758L14.8977 34.9845L10.406 30.4929L12.3589 28.5121C12.4984 28.3726 12.5821 28.1773 12.5821 27.982C12.5821 27.0056 12.4984 25.9733 12.4426 25.0248C12.1915 21.398 11.9405 17.6318 14.5629 15.0093C16.6274 12.9448 19.3893 11.801 22.3186 11.801C25.2479 11.801 28.0099 12.9448 30.0744 15.0093C32.1388 17.0738 33.2827 19.8357 33.2827 22.765C33.2827 25.6944 32.1388 28.4563 30.0744 30.5208C28.0099 32.641 24.969 32.92 22.5697 32.92Z" fill="#6F6F6F"/>
<path d="M7.89529 35.9051C7.7558 35.7656 7.5605 35.6819 7.36522 35.6819C7.16993 35.6819 6.97463 35.7656 6.83514 35.9051C6.52826 36.212 6.52826 36.6863 6.83514 36.9653L8.14638 38.2765C8.28587 38.416 8.48114 38.4997 8.67642 38.4997C8.87171 38.4997 9.06701 38.416 9.2065 38.2765C9.48548 37.9975 9.48548 37.4953 9.2065 37.2164L7.89529 35.9051Z" fill="#6F6F6F"/>
<path d="M8.14627 32.5016C8.00678 32.3621 7.81148 32.2784 7.61619 32.2784C7.4209 32.2784 7.22561 32.3621 7.08612 32.5016C6.77924 32.8084 6.77924 33.2827 7.08612 33.5617L11.8288 38.3044C11.9683 38.4439 12.1636 38.5276 12.3589 38.5276C12.5542 38.5276 12.7495 38.4439 12.889 38.3044C13.0285 38.1649 13.1121 37.9696 13.1121 37.7743C13.1121 37.579 13.0285 37.3838 12.889 37.2443L8.14627 32.5016Z" fill="#6F6F6F"/>
<path d="M24.1043 25.7501L19.6684 25.6385L19.78 21.2027C19.78 21.0074 19.7243 20.8121 19.5848 20.6726C19.4453 20.5332 19.25 20.4495 19.0268 20.4495C18.6362 20.4495 18.3014 20.7842 18.2735 21.1748L18.134 26.3639C18.134 26.5592 18.1899 26.7545 18.3293 26.894C18.4688 27.0335 18.6641 27.1172 18.8594 27.1172L24.0764 27.2566C24.4949 27.2566 24.8296 26.9219 24.8296 26.5313C24.8575 26.1128 24.5228 25.778 24.1043 25.7501Z" fill="#6F6F6F"/>
<path d="M10.1272 10.8803C10.3225 10.8803 10.5178 10.7966 10.6573 10.6571C10.9362 10.3503 10.9362 9.87599 10.6573 9.59701L7.67211 6.61189C7.53262 6.47239 7.33733 6.3887 7.14204 6.3887C6.94675 6.3887 6.75149 6.47239 6.612 6.61189C6.30512 6.91877 6.30512 7.39305 6.612 7.67204L9.5971 10.6571C9.73659 10.7966 9.90399 10.8803 10.1272 10.8803Z" fill="#6F6F6F"/>
<path d="M35.4029 34.3428C35.2634 34.2033 35.0681 34.1196 34.8729 34.1196C34.6776 34.1196 34.4823 34.2033 34.3428 34.3428C34.0638 34.6497 34.0638 35.124 34.3428 35.4029L37.3279 38.3881C37.4674 38.5276 37.6627 38.6113 37.858 38.6113C38.0533 38.6113 38.2485 38.5276 38.388 38.3881C38.667 38.0812 38.667 37.6069 38.388 37.3279L35.4029 34.3428Z" fill="#6F6F6F"/>
<path d="M22.514 5.74706C22.9325 5.74706 23.2673 5.41227 23.2673 4.9938V0.753249C23.2673 0.334775 22.9325 0 22.514 0C22.0955 0 21.7607 0.334775 21.7607 0.753249V4.9938C21.7607 5.41227 22.0955 5.74706 22.514 5.74706Z" fill="#6F6F6F"/>
<path d="M22.4859 39.2529C22.0674 39.2529 21.7327 39.5877 21.7327 40.0062V44.2467C21.7327 44.6652 22.0674 45 22.4859 45C22.9044 45 23.2392 44.6652 23.2392 44.2467V40.0062C23.2392 39.5877 22.9044 39.2529 22.4859 39.2529Z" fill="#6F6F6F"/>
<path d="M44.2469 21.7607H40.0064C39.5879 21.7607 39.2532 22.0954 39.2532 22.5139C39.2532 22.9324 39.5879 23.2672 40.0064 23.2672H44.2469C44.4422 23.2672 44.6375 23.1835 44.777 23.044C44.9165 22.9045 45.0002 22.7092 45.0002 22.5139C45.0002 22.0954 44.6654 21.7607 44.2469 21.7607Z" fill="#6F6F6F"/>
<path d="M4.99381 21.7607H0.753275C0.3348 21.7607 0 22.0954 0 22.5139C0 22.9324 0.3348 23.2672 0.753275 23.2672H4.99381C5.18909 23.2672 5.38439 23.1835 5.52388 23.044C5.66337 22.9045 5.74705 22.7092 5.74705 22.5139C5.74705 22.0954 5.41228 21.7607 4.99381 21.7607Z" fill="#6F6F6F"/>
<path d="M34.873 10.8803C35.0683 10.8803 35.2636 10.7966 35.4031 10.6571L38.3882 7.67204C38.5277 7.53254 38.6114 7.33725 38.6114 7.14196C38.6114 6.94667 38.5277 6.75138 38.3882 6.61189C38.2487 6.47239 38.0535 6.3887 37.8582 6.3887C37.6629 6.3887 37.4676 6.47239 37.3281 6.61189L34.343 9.59701C34.0361 9.90389 34.0361 10.3782 34.343 10.6571C34.4824 10.7966 34.6777 10.8803 34.873 10.8803Z" fill="#6F6F6F"/>
</svg>
