<svg width="41" height="41" viewBox="0 0 41 41" fill="none" xmlns="http://www.w3.org/2000/svg">
<path d="M14.7344 30.4617V32.6719C14.7344 32.8418 14.8019 33.0047 14.922 33.1249C15.0421 33.245 15.2051 33.3125 15.375 33.3125H16.2078C16.0837 33.7284 16.019 34.1597 16.0156 34.5938C16.1566 36.5156 17.1495 38.8475 21.1406 39.0461C21.2822 39.0457 21.4196 38.9983 21.5314 38.9116C22.345 38.2709 22.4027 37.0922 21.6852 35.7789C21.6255 35.5863 21.616 35.3817 21.6574 35.1844C21.6989 34.9871 21.79 34.8037 21.9222 34.6514C22.0872 34.5213 22.2829 34.4358 22.4904 34.4033C22.698 34.3708 22.9105 34.3922 23.1073 34.4656C23.2291 34.5169 23.6006 34.6706 23.5942 35.4073C23.5721 35.5772 23.6184 35.749 23.723 35.8847C23.8275 36.0205 23.9817 36.1092 24.1516 36.1312C24.3215 36.1533 24.4932 36.107 24.6289 36.0025C24.7647 35.898 24.8534 35.7438 24.8755 35.5739C24.9497 35.2525 24.9862 34.9236 24.9844 34.5938C24.984 34.1595 24.9192 33.7277 24.7922 33.3125H25.625C25.7949 33.3125 25.9579 33.245 26.078 33.1249C26.1981 33.0047 26.2656 32.8418 26.2656 32.6719V30.4489C28.8281 26.6692 30.1094 22.928 30.1094 19.3148C30.1094 9.86562 21.288 2.37031 20.91 2.0564C20.7949 1.96052 20.6498 1.90802 20.5 1.90802C20.3502 1.90802 20.2051 1.96052 20.09 2.0564C19.712 2.37031 10.8906 9.86562 10.8906 19.3148C10.8906 22.928 12.1719 26.6692 14.7344 30.4489V30.4617ZM16.0156 30.75H18.1873C17.6451 31.0756 17.1779 31.5123 16.8164 32.0312H16.0156V30.75ZM20.9805 33.8122C20.689 34.1426 20.4909 34.5446 20.4065 34.977C20.322 35.4094 20.3543 35.8564 20.5 36.2722C20.5122 36.3075 20.5272 36.3418 20.5448 36.3747C20.831 36.7752 20.9483 37.2722 20.8716 37.7584C18.5781 37.5598 17.4378 36.5156 17.2969 34.5938C17.2935 34.0371 17.4419 33.49 17.7261 33.0114C18.0048 32.5209 18.4081 32.1127 18.8952 31.8281C19.3822 31.5435 19.9359 31.3926 20.5 31.3906C21.1053 31.4207 21.6924 31.6078 22.2035 31.9335C22.7145 32.2592 23.132 32.7124 23.4148 33.2484C22.9964 33.1188 22.5512 33.1014 22.1239 33.1981C21.6967 33.2948 21.3023 33.5022 20.9805 33.7994V33.8122ZM24.9844 32.0312H24.1836C23.8221 31.5123 23.3549 31.0756 22.8127 30.75H24.9844V32.0312ZM20.5 3.40812C22.2297 5.00328 28.8281 11.5889 28.8281 19.3148C28.8281 22.5756 27.675 25.9837 25.4008 29.4559H15.5992C13.325 25.9837 12.1719 22.5756 12.1719 19.3148C12.1719 11.5889 18.7703 5.00328 20.5 3.40812Z" fill="#6F6F6F"/>
<path d="M20.4999 24.3438C21.3868 24.3438 22.2538 24.0807 22.9913 23.588C23.7287 23.0952 24.3035 22.3949 24.6429 21.5755C24.9823 20.7561 25.0711 19.8544 24.8981 18.9845C24.7251 18.1146 24.298 17.3156 23.6708 16.6884C23.0437 16.0613 22.2446 15.6342 21.3747 15.4612C20.5049 15.2881 19.6032 15.3769 18.7838 15.7164C17.9644 16.0558 17.264 16.6305 16.7713 17.368C16.2785 18.1054 16.0155 18.9724 16.0155 19.8594C16.0155 21.0487 16.488 22.1893 17.329 23.0303C18.1699 23.8713 19.3106 24.3438 20.4999 24.3438ZM20.4999 16.6562C21.1334 16.6562 21.7527 16.8441 22.2794 17.1961C22.8062 17.548 23.2167 18.0483 23.4592 18.6336C23.7016 19.2189 23.7651 19.8629 23.6415 20.4843C23.5179 21.1056 23.2128 21.6764 22.7648 22.1243C22.3169 22.5723 21.7461 22.8774 21.1248 23.001C20.5034 23.1245 19.8594 23.0611 19.2741 22.8187C18.6888 22.5762 18.1885 22.1657 17.8366 21.6389C17.4846 21.1122 17.2968 20.4929 17.2968 19.8594C17.2968 19.0099 17.6342 18.1951 18.2349 17.5944C18.8356 16.9937 19.6504 16.6562 20.4999 16.6562ZM20.4999 10.8906C20.6698 10.8906 20.8327 10.8231 20.9529 10.703C21.073 10.5829 21.1405 10.4199 21.1405 10.25V7.6875C21.1405 7.5176 21.073 7.35465 20.9529 7.23451C20.8327 7.11437 20.6698 7.04688 20.4999 7.04688C20.33 7.04688 20.167 7.11437 20.0469 7.23451C19.9268 7.35465 19.8593 7.5176 19.8593 7.6875V10.25C19.8593 10.4199 19.9268 10.5829 20.0469 10.703C20.167 10.8231 20.33 10.8906 20.4999 10.8906ZM33.953 32.3708C33.0328 32.3754 32.1309 32.6276 31.3418 33.1011C30.5527 33.5745 29.9057 34.2516 29.4686 35.0614C29.1597 34.9767 28.8408 34.9336 28.5205 34.9333C27.5871 34.9299 26.6906 35.297 26.0276 35.9539C25.3646 36.6109 24.9893 37.5041 24.9843 38.4375C24.9843 38.6074 25.0518 38.7703 25.1719 38.8905C25.292 39.0106 25.455 39.0781 25.6249 39.0781C25.7948 39.0781 25.9577 39.0106 26.0779 38.8905C26.198 38.7703 26.2655 38.6074 26.2655 38.4375C26.2655 37.8428 26.5017 37.2725 26.9222 36.852C27.3427 36.4315 27.913 36.1953 28.5077 36.1953C29.1024 36.1953 29.6727 36.4315 30.0932 36.852C30.5137 37.2725 30.7499 37.8428 30.7499 38.4375C30.7499 38.6074 30.8174 38.7703 30.9375 38.8905C31.0577 39.0106 31.2206 39.0781 31.3905 39.0781C31.5604 39.0781 31.7234 39.0106 31.8435 38.8905C31.9636 38.7703 32.0311 38.6074 32.0311 38.4375C32.0309 37.8867 31.9015 37.3436 31.6534 36.8519C31.4053 36.3601 31.0454 35.9334 30.6025 35.6059C31.0193 34.8647 31.6702 34.2825 32.4532 33.9507C33.2362 33.6189 34.1071 33.5561 34.9296 33.7721C35.7521 33.9882 36.4797 34.4709 36.9985 35.1447C37.5174 35.8185 37.7981 36.6454 37.7968 37.4958C37.7968 37.6657 37.8643 37.8286 37.9844 37.9488C38.1045 38.0689 38.2675 38.1364 38.4374 38.1364C38.6073 38.1364 38.7702 38.0689 38.8904 37.9488C39.0105 37.8286 39.078 37.6657 39.078 37.4958C39.078 36.1365 38.5381 34.833 37.5769 33.8719C36.6158 32.9107 35.3122 32.3708 33.953 32.3708ZM10.3972 35.6252C9.95695 35.9507 9.59861 36.3744 9.35063 36.8625C9.10265 37.3507 8.97186 37.89 8.96863 38.4375C8.96863 38.6074 9.03613 38.7703 9.15627 38.8905C9.27641 39.0106 9.43935 39.0781 9.60926 39.0781C9.77916 39.0781 9.94211 39.0106 10.0622 38.8905C10.1824 38.7703 10.2499 38.6074 10.2499 38.4375C10.2499 37.8428 10.4861 37.2725 10.9066 36.852C11.3271 36.4315 11.8974 36.1953 12.4921 36.1953C13.0867 36.1953 13.657 36.4315 14.0775 36.852C14.498 37.2725 14.7343 37.8428 14.7343 38.4375C14.7343 38.6074 14.8018 38.7703 14.9219 38.8905C15.042 39.0106 15.205 39.0781 15.3749 39.0781C15.5448 39.0781 15.7077 39.0106 15.8279 38.8905C15.948 38.7703 16.0155 38.6074 16.0155 38.4375C16.0155 37.9748 15.9244 37.5166 15.7473 37.0891C15.5702 36.6617 15.3107 36.2732 14.9835 35.9461C14.6563 35.6189 14.2679 35.3593 13.8404 35.1823C13.4129 35.0052 12.9548 34.9141 12.4921 34.9141C12.1717 34.9144 11.8529 34.9575 11.5439 35.0422C10.9959 34.0514 10.1351 33.27 9.09614 32.82C8.05714 32.3701 6.89837 32.2768 5.80079 32.5549C4.7032 32.8329 3.72859 33.4666 3.02915 34.357C2.32971 35.2474 1.94482 36.3444 1.93457 37.4766C1.93457 37.6465 2.00206 37.8094 2.12221 37.9296C2.24235 38.0497 2.40529 38.1172 2.5752 38.1172C2.7451 38.1172 2.90804 38.0497 3.02819 37.9296C3.14833 37.8094 3.21582 37.6465 3.21582 37.4766C3.21872 36.6278 3.50248 35.8039 4.02282 35.1333C4.54316 34.4627 5.27081 33.9833 6.09227 33.7697C6.91372 33.5561 7.78277 33.6204 8.56384 33.9526C9.34491 34.2847 9.99407 34.8661 10.41 35.6059L10.3972 35.6252Z" fill="#6F6F6F"/>
</svg>
