<svg width="43" height="43" viewBox="0 0 43 43" fill="none" xmlns="http://www.w3.org/2000/svg">
<path d="M39.7579 16.5516H37.5056C36.8913 16.5516 36.3111 16.1762 36.0722 15.596L35.9357 15.2889C35.6968 14.7429 35.8334 14.0944 36.277 13.6508L37.8469 12.081C39.1096 10.8183 39.1096 8.77064 37.8469 7.50794L35.458 5.11905C34.8437 4.50476 34.0246 4.1635 33.1715 4.1635C32.3183 4.1635 31.4992 4.50476 30.8849 5.11905L29.4175 6.5865C29.1445 6.85952 28.7349 7.03015 28.3254 7.03015C28.1206 7.03015 27.9159 6.99604 27.7453 6.89366C27.6087 6.8254 27.4723 6.79127 27.3357 6.72302C26.7897 6.48413 26.4143 5.93809 26.4143 5.3238V3.24206C26.4143 1.46746 24.981 0 23.1722 0H19.7937C18.019 0 16.5516 1.43333 16.5516 3.24206V5.3238C16.5516 5.93809 16.1762 6.48413 15.6302 6.72302C15.4937 6.79127 15.3572 6.8254 15.2207 6.89366C15.05 6.96191 14.8452 7.03015 14.6405 7.03015C14.231 7.03015 13.8556 6.85952 13.5484 6.5865L12.081 5.11905C11.4667 4.50476 10.6476 4.1635 9.79447 4.1635C8.94129 4.1635 8.12222 4.50476 7.50794 5.11905L5.11905 7.50794C4.50476 8.12222 4.16352 8.94127 4.16352 9.79445C4.16352 10.6476 4.50476 11.4667 5.11905 12.081L6.68892 13.6508C7.13257 14.0944 7.26908 14.7429 7.03019 15.2889C6.99607 15.3913 6.96193 15.4937 6.89368 15.596C6.68891 16.1762 6.10876 16.5516 5.49448 16.5516H3.24206C1.46746 16.5516 0 17.9849 0 19.7937V23.1722C0 24.9468 1.43333 26.4143 3.24206 26.4143H5.69923C6.31352 26.4143 6.85954 26.7897 7.09843 27.3357L7.16667 27.4722C7.40556 28.0524 7.30321 28.7008 6.85956 29.1445L5.11905 30.8849C4.50476 31.4992 4.16352 32.3183 4.16352 33.1714C4.16352 34.0246 4.50476 34.8437 5.11905 35.4579L7.50794 37.8468C8.12222 38.4611 8.94129 38.8024 9.79447 38.8024C10.6476 38.8024 11.4667 38.4611 12.081 37.8468L13.9238 36.004C14.1968 35.731 14.6064 35.5603 14.9818 35.5603C15.1865 35.5603 15.3913 35.5944 15.5961 35.6968C16.1762 35.9357 16.5516 36.4818 16.5516 37.096V39.6897C16.5516 41.4643 17.9849 42.9317 19.7937 42.9317H23.1722C24.9468 42.9317 26.4143 41.4984 26.4143 39.6897V37.096C26.4143 36.4476 26.7897 35.9016 27.404 35.6627C27.5746 35.5944 27.7794 35.5603 27.9841 35.5603C28.3937 35.5603 28.7691 35.731 29.0762 36.004L30.9191 37.8468C31.5334 38.4611 32.3524 38.8024 33.2056 38.8024C34.0587 38.8024 34.8778 38.4611 35.4921 37.8468L37.881 35.4579C38.4952 34.8437 38.8365 34.0246 38.8365 33.1714C38.8365 32.3183 38.4952 31.4992 37.881 30.8849L36.1405 29.1445C35.6969 28.7008 35.5603 28.0183 35.8333 27.4722L35.9016 27.3357C36.1405 26.7897 36.6865 26.4143 37.3008 26.4143H39.7579C41.5325 26.4143 43 24.981 43 23.1722V19.7937C43 17.9849 41.5325 16.5516 39.7579 16.5516ZM34.3659 26.619L34.2976 26.7556C33.7516 27.9841 34.0246 29.3833 34.9802 30.3389L36.7207 32.0794C37.3008 32.6595 37.3008 33.6492 36.7207 34.2294L34.3318 36.6183C34.0588 36.8913 33.6492 37.0619 33.2397 37.0619C32.8302 37.0619 32.4548 36.8913 32.1476 36.6183L30.3048 34.7754C29.6905 34.1611 28.9056 33.8198 28.0183 33.8198C27.5746 33.8198 27.1651 33.8881 26.7556 34.0587C25.527 34.5706 24.7421 35.731 24.7421 37.0278V39.6214C24.7421 40.4746 24.0595 41.1571 23.2064 41.1571H19.8278C18.9746 41.1571 18.2921 40.4746 18.2921 39.6214V37.0278C18.2921 35.6968 17.5072 34.5365 16.2445 34.0246C15.8691 33.854 15.4595 33.7857 15.0159 33.7857C14.1627 33.7857 13.3437 34.127 12.7294 34.7413L10.8865 36.5841C10.6135 36.8571 10.204 37.0278 9.79447 37.0278C9.38495 37.0278 9.00952 36.8571 8.70238 36.5841L6.31349 34.1952C6.04048 33.9222 5.86987 33.5127 5.86987 33.1032C5.86987 32.6937 6.04048 32.3183 6.31349 32.0111L8.054 30.2706C9.00956 29.3151 9.24845 27.9159 8.73654 26.6873L8.66826 26.5508C8.15636 25.3563 6.99606 24.6055 5.69923 24.6055H3.24206C2.38889 24.6055 1.70635 23.923 1.70635 23.0698V19.6913C1.70635 18.8381 2.38889 18.1556 3.24206 18.1556H5.49448C6.82543 18.1556 8.01985 17.3365 8.49763 16.1079L8.60003 15.8349C9.0778 14.6405 8.8048 13.2754 7.88337 12.354L6.31349 10.7841C5.73333 10.204 5.73333 9.21428 6.31349 8.63412L8.70238 6.24523C8.9754 5.97222 9.38495 5.80159 9.79447 5.80159C10.204 5.80159 10.5794 5.97222 10.8865 6.24523L12.354 7.71269C12.9683 8.32698 13.7873 8.66826 14.6405 8.66826C15.0841 8.66826 15.4937 8.56586 15.9032 8.39523C16.0397 8.32698 16.1421 8.29286 16.2786 8.25873C17.473 7.78096 18.2579 6.62064 18.2579 5.28968V3.20794C18.2579 2.35477 18.9405 1.67223 19.7937 1.67223H23.1722C24.0254 1.67223 24.7079 2.35477 24.7079 3.20794V5.28968C24.7079 6.62064 25.4929 7.78096 26.6873 8.25873C26.8238 8.29286 26.9262 8.3611 27.0627 8.39523C27.4722 8.56586 27.8817 8.66826 28.3254 8.66826C29.1786 8.66826 29.9976 8.32698 30.6119 7.71269L32.0794 6.24523C32.3524 5.97222 32.7619 5.80159 33.1715 5.80159C33.581 5.80159 33.9564 5.97222 34.2635 6.24523L36.6524 8.63412C37.2326 9.21428 37.2326 10.204 36.6524 10.7841L35.0826 12.354C34.1611 13.2754 33.8881 14.6405 34.3659 15.8349L34.4683 16.1079C34.946 17.3365 36.1405 18.1556 37.4714 18.1556H39.7239C40.577 18.1556 41.2596 18.8381 41.2596 19.6913V23.0698C41.2596 23.923 40.577 24.6055 39.7239 24.6055H37.2667C36.0381 24.6738 34.8778 25.4246 34.3659 26.619Z" fill="#6F6F6F"/>
<path d="M22.3532 11.1937C22.3532 10.7159 21.9778 10.3405 21.5 10.3405C18.5992 10.3405 15.869 11.4667 13.8214 13.5143C10.4087 16.927 9.65794 22.046 11.9103 26.2778C11.9444 26.3119 11.9786 26.3802 12.0127 26.4143C11.6714 26.9262 11.5008 27.5064 11.5008 28.1207C11.5008 28.9397 11.8079 29.6905 12.3881 30.2707C12.9683 30.8508 13.7191 31.1579 14.5381 31.1579C15.3572 31.1579 16.1079 30.8508 16.6881 30.2707C17.2683 29.6905 17.5754 28.9397 17.5754 28.1207C17.5754 27.3016 17.2683 26.5508 16.6881 25.9706C16.1079 25.3905 15.3572 25.0833 14.5381 25.0833C14.1286 25.0833 13.6849 25.1857 13.3095 25.3222C11.5008 21.773 12.1492 17.5413 14.9817 14.7087C16.7222 12.9683 19.0087 12.0468 21.4318 12.0468C21.9778 12.0468 22.3532 11.6714 22.3532 11.1937ZM15.5278 27.1651C16.0397 27.677 16.0397 28.5643 15.5278 29.0762C15.2889 29.3151 14.9476 29.4857 14.5722 29.4857C14.1968 29.4857 13.8556 29.3492 13.6167 29.0762C13.3778 28.8373 13.2072 28.4961 13.2072 28.1207C13.2072 27.7453 13.3437 27.404 13.6167 27.1651C13.8556 26.9262 14.1968 26.7556 14.5722 26.7556C14.9476 26.7556 15.2889 26.9262 15.5278 27.1651Z" fill="#6F6F6F"/>
<path d="M30.9872 15.9373C31.9087 14.7428 31.8063 13.0365 30.7142 11.9444C30.134 11.3643 29.3833 11.0571 28.5642 11.0571C27.7452 11.0571 26.9944 11.3643 26.4142 11.9444C25.2198 13.1389 25.2198 15.05 26.4142 16.2444C26.9944 16.8246 27.7452 17.1317 28.5642 17.1317C28.9055 17.1317 29.2809 17.0635 29.6222 16.927C31.465 20.4762 30.8166 24.7762 27.984 27.6087C26.2436 29.3492 23.9571 30.2706 21.5341 30.2706C21.0563 30.2706 20.6809 30.646 20.6809 31.1238C20.6809 31.6016 21.0563 31.977 21.5341 31.977C24.4349 31.977 27.165 30.8508 29.2127 28.8032C32.6254 25.3905 33.3761 20.2714 31.1238 16.0397C31.0555 16.0397 31.0214 15.9714 30.9872 15.9373ZM27.6428 15.0841C27.4039 14.8452 27.2333 14.504 27.2333 14.1286C27.2333 13.7532 27.3698 13.4119 27.6428 13.173C27.8817 12.9341 28.223 12.7635 28.5984 12.7635C28.9737 12.7635 29.315 12.9 29.5539 13.173C30.0658 13.6849 30.0658 14.5722 29.5539 15.0841C29.315 15.323 28.9737 15.4936 28.5984 15.4936C28.223 15.4595 27.8817 15.323 27.6428 15.0841Z" fill="#6F6F6F"/>
</svg>
