<svg width="1440" height="163" viewBox="0 0 1440 163" fill="none" xmlns="http://www.w3.org/2000/svg">
<path fill-rule="evenodd" clip-rule="evenodd" d="M1451 163L1369.87 139.229C1289.96 115.458 1127.71 67.9166 966.667 61.125C805.626 54.3333 643.374 88.2917 482.333 108.667C321.292 129.042 159.041 135.833 79.1259 139.229L-2 142.625L-2.00001 4.95498e-06L79.1258 -2.13727e-06C159.041 -9.12366e-06 321.292 -2.33081e-05 482.333 -3.73868e-05C643.374 -5.14654e-05 805.626 -6.56499e-05 966.667 -7.97285e-05C1127.71 -9.38072e-05 1289.96 -0.000107992 1369.87 -0.000114978L1451 -0.00012207L1451 163Z" fill="#F7F9FD"/>
</svg>
