<svg width="38" height="38" viewBox="0 0 38 38" fill="none" xmlns="http://www.w3.org/2000/svg">
<path opacity="0.5" d="M2.81842 6.45222C2.68386 6.47998 2.54129 6.49579 2.39886 6.49579C1.29048 6.49579 0.395996 5.60115 0.395996 4.49292C0.395996 3.38854 1.29055 2.49005 2.39886 2.49005C2.54136 2.49005 2.68379 2.50586 2.81842 2.53362C1.91191 2.72369 1.23111 3.53112 1.23111 4.49299C1.23111 5.45873 1.91191 6.26222 2.81842 6.45222ZM19.4197 6.45222C19.2851 6.47998 19.1425 6.49579 19.0001 6.49579C17.8917 6.49579 16.9932 5.60115 16.9932 4.49292C16.9932 3.38854 17.8917 2.49005 19.0001 2.49005C19.1426 2.49005 19.285 2.50586 19.4197 2.53362C18.5092 2.72369 17.8284 3.53112 17.8284 4.49299C17.8285 5.45873 18.5093 6.26222 19.4197 6.45222ZM36.017 6.45222C35.8824 6.47998 35.7399 6.49579 35.5974 6.49579C34.4931 6.49579 33.5946 5.60115 33.5946 4.49292C33.5946 3.38854 34.4931 2.49005 35.5974 2.49005C35.7399 2.49005 35.8824 2.50586 36.017 2.53362C35.1105 2.72369 34.4297 3.53112 34.4297 4.49299C34.4297 5.45873 35.1105 6.26222 36.017 6.45222ZM4.02574 21.3038H3.19055C2.68386 21.3038 2.27618 20.8961 2.27618 20.3855V18.6874C2.27618 18.1807 2.68386 17.773 3.19055 17.773H4.02574C3.51905 17.773 3.11136 18.1808 3.11136 18.6874V20.3855C3.11136 20.8962 3.51905 21.3038 4.02574 21.3038ZM34.1842 21.3038H33.349C32.8424 21.3038 32.4347 20.8961 32.4347 20.3855V18.6874C32.4347 18.1807 32.8424 17.773 33.349 17.773H34.1842C33.6775 17.773 33.2699 18.1808 33.2699 18.6874V20.3855C33.2699 20.8962 33.6775 21.3038 34.1842 21.3038Z" fill="white"/>
<path d="M35.5971 6.89151C36.9223 6.89151 37.9999 5.81534 37.9999 4.49291C37.9999 3.17018 36.9222 2.09393 35.5971 2.09393C34.4097 2.09393 33.4237 2.96237 33.234 4.09702H21.363C21.1733 2.96244 20.1872 2.09393 18.9999 2.09393C17.8105 2.09393 16.8229 2.96237 16.6329 4.09702H4.76195C4.57239 2.96244 3.58618 2.09393 2.39875 2.09393C1.07617 2.09393 0 3.1701 0 4.49291C0 5.81526 1.07617 6.89151 2.39875 6.89151C3.58625 6.89151 4.57232 6.02315 4.76202 4.88879H14.2547C8.73436 6.67598 4.61856 11.4806 3.79562 17.3773H3.19044C2.46792 17.3773 1.88026 17.9648 1.88026 18.6873V20.3854C1.88026 21.1103 2.468 21.6998 3.19044 21.6998H4.88456C5.60708 21.6998 6.19474 21.1103 6.19474 20.3854V18.6873C6.19474 17.9648 5.607 17.3773 4.88456 17.3773H4.59451C5.52113 11.0829 10.4087 6.12238 16.683 5.11775C16.9595 6.13767 17.8921 6.89151 19 6.89151C20.1059 6.89151 21.0372 6.13774 21.3131 5.11775C27.5881 6.12201 32.4786 11.0824 33.4091 17.3772H33.3489C32.6265 17.3772 32.0389 17.9647 32.0389 18.6872V20.3854C32.0389 21.1102 32.6264 21.6997 33.3489 21.6997H35.0432C35.7656 21.6997 36.3532 21.1102 36.3532 20.3854V18.6872C36.3532 17.9647 35.7657 17.3772 35.0432 17.3772H34.2081C33.3817 11.4805 29.2636 6.6759 23.7423 4.88872H33.234C33.4237 6.02307 34.4097 6.89151 35.5971 6.89151ZM5.40305 18.6872V20.3854C5.40305 20.6784 5.1752 20.9079 4.88448 20.9079H3.19037C2.89965 20.9079 2.6718 20.6783 2.6718 20.3854V18.6872C2.6718 18.4016 2.90455 18.1689 3.19037 18.1689C3.3348 18.1689 4.92634 18.1689 4.88448 18.1689C5.1703 18.1689 5.40305 18.4016 5.40305 18.6872ZM35.5615 18.6872V20.3854C35.5615 20.6784 35.3338 20.9079 35.0432 20.9079H33.3489C33.0582 20.9079 32.8306 20.6783 32.8306 20.3854V18.6872C32.8306 18.4016 33.0633 18.1689 33.3489 18.1689C33.9129 18.1689 35.1018 18.1689 35.0432 18.1689C35.3288 18.1689 35.5615 18.4016 35.5615 18.6872ZM35.5971 2.88562C36.4854 2.88562 37.2082 3.60659 37.2082 4.49291C37.2082 5.37886 36.4853 6.09982 35.5971 6.09982C34.7111 6.09982 33.9902 5.37886 33.9902 4.49291C33.9901 3.60651 34.7111 2.88562 35.5971 2.88562ZM2.39875 6.09982C1.51258 6.09982 0.791617 5.37886 0.791617 4.49291C0.791617 3.60651 1.51258 2.88562 2.39875 2.88562C3.28492 2.88562 4.00588 3.60659 4.00588 4.49291C4.00581 5.37886 3.28492 6.09982 2.39875 6.09982ZM18.9999 6.09982C18.1116 6.09982 17.3889 5.37886 17.3889 4.49291C17.3889 3.60651 18.1116 2.88562 18.9999 2.88562C19.8859 2.88562 20.6068 3.60659 20.6068 4.49291C20.6068 5.37886 19.8859 6.09982 18.9999 6.09982Z" fill="#6F6F6F"/>
<path d="M19.9269 9.72414C19.7568 9.36477 19.4056 9.14159 19.009 9.13766C19.0058 9.13758 19.0031 9.1358 18.9999 9.1358C18.9986 9.1358 18.9975 9.13655 18.9963 9.13655C18.5965 9.13751 18.2419 9.36232 18.0708 9.72332L6.31414 34.4343C6.12629 34.824 6.19896 35.2774 6.49887 35.5894C6.8002 35.9025 7.2536 35.9925 7.65297 35.8182L18.905 30.9058C18.9633 30.8799 19.0335 30.8811 19.0939 30.9062L30.344 35.8182C30.3444 35.8186 30.3444 35.8186 30.3444 35.8186C30.7479 35.9938 31.1995 35.8996 31.4986 35.589C31.7986 35.2774 31.8708 34.824 31.6842 34.4362L19.9269 9.72414ZM7.33658 35.0926C7.19876 35.1526 7.10368 35.0764 7.06947 35.0405C7.03562 35.0053 6.96393 34.9095 7.02813 34.7765L18.6041 10.445V30.1755C18.5985 30.1778 18.5924 30.1785 18.5869 30.181L7.33658 35.0926ZM30.9283 35.0402C30.8935 35.0757 30.7984 35.1511 30.6612 35.0931L19.4069 30.1792C19.4033 30.1776 19.3994 30.1773 19.3957 30.1758V10.4499L30.9704 34.7785C31.0334 34.9094 30.9619 35.0053 30.9283 35.0402Z" fill="#6F6F6F"/>
</svg>
